<svg width="67" height="76" fill="none" xmlns="http://www.w3.org/2000/svg"><g filter="url(#prefix__filter0_d)"><path fill="#24242A" d="M11 9h56v54H11z"/></g><path d="M32.602 24.469c-.11-.11-.329-.219-.438-.219-.164 0-.383.11-.492.219l-3.5 3.445-1.203-1.203c-.11-.11-.328-.164-.492-.164a.621.621 0 00-.438.164l-.875.875c-.11.11-.164.328-.164.437 0 .165.055.383.164.493l2.625 2.57c.11.11.328.219.438.219.164 0 .382-.11.492-.22l.875-.82 3.937-3.992c.11-.054.219-.273.219-.437 0-.164-.11-.383-.219-.492l-.93-.875zm0 8.695c-.11-.11-.329-.164-.438-.164-.164 0-.383.055-.492.164l-3.5 3.5-1.203-1.203c-.11-.11-.328-.219-.492-.219-.165 0-.329.11-.438.219l-.875.82c-.11.11-.164.328-.164.492 0 .164.055.383.164.438l2.625 2.625c.11.11.273.219.438.219.164 0 .382-.11.492-.22l.875-.874 3.937-3.938c.11-.109.219-.328.219-.437 0-.164-.11-.383-.219-.492l-.93-.93zM52.125 43.5h-15.75c-.492 0-.875.438-.875.875v1.75c0 .492.383.875.875.875h15.75c.438 0 .875-.383.875-.875v-1.75c0-.438-.438-.875-.875-.875zm0-17.5h-15.75c-.492 0-.875.438-.875.875v1.75c0 .492.383.875.875.875h15.75c.438 0 .875-.383.875-.875v-1.75c0-.438-.438-.875-.875-.875zm0 8.75h-15.75c-.492 0-.875.438-.875.875v1.75c0 .492.383.875.875.875h15.75c.438 0 .875-.383.875-.875v-1.75c0-.438-.438-.875-.875-.875zM32.602 41.164c-.11-.11-.329-.164-.438-.164-.164 0-.383.055-.492.164l-3.5 3.5-1.203-1.203c-.11-.11-.328-.219-.492-.219-.165 0-.329.11-.438.219l-.875.82c-.11.11-.164.328-.164.492 0 .164.055.383.164.438l2.625 2.625c.11.11.273.219.438.219.164 0 .382-.11.492-.22l.875-.874 3.937-3.938c.11-.109.219-.328.219-.437 0-.164-.11-.383-.219-.492l-.93-.93z" fill="#ED8B00"/><defs><filter id="prefix__filter0_d" x="0" y="0" width="78" height="76" filterUnits="userSpaceOnUse" color-interpolation-filters="sRGB"><feFlood flood-opacity="0" result="BackgroundImageFix"/><feColorMatrix in="SourceAlpha" values="0 0 0 0 0 0 0 0 0 0 0 0 0 0 0 0 0 0 127 0" result="hardAlpha"/><feOffset dy="2"/><feGaussianBlur stdDeviation="5.5"/><feComposite in2="hardAlpha" operator="out"/><feColorMatrix values="0 0 0 0 0 0 0 0 0 0 0 0 0 0 0 0 0 0 0.25 0"/><feBlend in2="BackgroundImageFix" result="effect1_dropShadow"/><feBlend in="SourceGraphic" in2="effect1_dropShadow" result="shape"/></filter></defs></svg>