<svg width="20" height="20" fill="none" xmlns="http://www.w3.org/2000/svg"><mask id="prefix__a" maskUnits="userSpaceOnUse" x="0" y="0" width="20" height="20"><circle cx="10" cy="10" r="10" fill="#C4C4C4"/></mask><g mask="url(#prefix__a)"><path d="M25.396 20.931H-5.448a.55.55 0 01-.551-.55V.55A.55.55 0 01-5.45 0h30.847a.55.55 0 01.55.55v19.83a.55.55 0 01-.55.551z" fill="#73AF00"/><path d="M9.687 2.929l-11.61 7.066a.55.55 0 000 .941l11.61 7.067a.55.55 0 00.573 0l11.61-7.067a.55.55 0 000-.94L10.26 2.928a.55.55 0 00-.573 0z" fill="#FFE15A"/><path d="M9.974 14.872a4.407 4.407 0 100-8.813 4.407 4.407 0 000 8.813z" fill="#41479B"/><path d="M6.192 8.211a4.375 4.375 0 00-.474 1.128c2.443-.184 6.056.5 8.356 2.732.15-.383.25-.792.287-1.219-2.375-1.998-5.658-2.709-8.169-2.64zM10.156 11.97l.117.351.371.003a.05.05 0 01.03.09l-.299.22.112.354a.05.05 0 01-.076.056l-.302-.216-.302.216a.05.05 0 01-.077-.056l.112-.354-.298-.22a.05.05 0 01.03-.09l.37-.003.117-.352a.05.05 0 01.095 0zM11.598 12.88l.05.15.16.002c.02 0 .029.027.012.039l-.128.095.048.152a.021.021 0 01-.033.024l-.13-.093-.13.093a.022.022 0 01-.033-.024l.048-.152-.128-.095c-.017-.012-.008-.039.013-.039l.16-.001.05-.152c.006-.02.034-.02.04 0zM9.533 11.301l.05.151.16.002c.02 0 .03.026.013.038l-.129.095.048.152a.022.022 0 01-.033.024l-.13-.092-.13.092a.022.022 0 01-.032-.024l.048-.152-.129-.095c-.016-.012-.008-.038.013-.038l.16-.002.05-.151a.022.022 0 01.041 0zM6.737 11.117l.05.152.16.001c.02 0 .03.027.013.039l-.129.095.049.152a.022.022 0 01-.033.024l-.13-.093-.13.093a.022.022 0 01-.033-.024l.048-.152-.128-.095a.022.022 0 01.012-.039l.16-.001.05-.152c.007-.02.035-.02.041 0zM9.076 12.827l.05.152h.16c.02 0 .03.027.013.04l-.129.094.048.152a.022.022 0 01-.033.024l-.13-.092-.13.093a.022.022 0 01-.032-.024l.048-.153-.129-.095c-.016-.012-.008-.038.013-.038l.16-.002.05-.15c.007-.02.035-.02.041 0zM7.79 11.012l.04.124h.131c.017 0 .024.022.01.032l-.105.078.04.124a.018.018 0 01-.027.02l-.106-.076-.107.076a.018.018 0 01-.027-.02l.04-.124-.105-.078a.018.018 0 01.01-.031l.13-.001.042-.124a.018.018 0 01.033 0zM11.71 8.456l.051.155.163.001c.022 0 .03.027.013.04l-.131.097.05.155a.022.022 0 01-.034.025l-.133-.095-.133.095a.022.022 0 01-.034-.025l.05-.155-.132-.097a.022.022 0 01.013-.04l.163-.001.052-.155a.022.022 0 01.042 0zM6.917 10.255l.041.123.13.001c.018 0 .025.022.011.032l-.105.078.04.124a.018.018 0 01-.027.02l-.107-.076-.106.076a.018.018 0 01-.027-.02l.04-.124-.106-.078a.018.018 0 01.01-.032h.131l.042-.124a.018.018 0 01.033 0zM7.547 12l.063.187.197.001c.026 0 .037.033.016.048l-.159.118.06.188a.027.027 0 01-.041.03l-.161-.115-.161.115a.027.027 0 01-.04-.03l.059-.188-.16-.118a.027.027 0 01.016-.048l.198-.001.063-.188c.008-.024.042-.024.05 0zM12.401 12.919l.04.118h.124c.016 0 .023.021.01.03l-.1.075.037.118c.005.015-.013.028-.026.019l-.1-.072-.102.072c-.013.01-.03-.004-.026-.019l.038-.118-.1-.074a.017.017 0 01.01-.03l.124-.001.04-.118c.004-.016.026-.016.031 0zM12.836 12.018l.05.152h.16c.021.001.03.027.013.04l-.128.095.048.152a.021.021 0 01-.033.024l-.13-.093-.13.093a.021.021 0 01-.033-.024l.048-.152-.128-.095a.022.022 0 01.012-.04h.16l.05-.152a.022.022 0 01.041 0z" fill="#F5F5F5"/></g></svg>