<svg width="24" height="24" viewBox="0 0 24 24" fill="none" xmlns="http://www.w3.org/2000/svg">
<path d="M22.5882 0H1.41176C0.632068 0 0 0.632068 0 1.41176C0 2.19146 0.632069 2.82353 1.41176 2.82353H22.5882C23.3679 2.82353 24 2.19146 24 1.41176C24 0.632068 23.3679 0 22.5882 0Z" fill="#424242"/>
<path d="M22.5882 10.5882H1.41176C0.632068 10.5882 0 11.2203 0 12C0 12.7797 0.632069 13.4118 1.41176 13.4118H22.5882C23.3679 13.4118 24 12.7797 24 12C24 11.2203 23.3679 10.5882 22.5882 10.5882Z" fill="#424242"/>
<path d="M22.5882 21.1765H1.41176C0.632068 21.1765 0 21.8086 0 22.5882C0 23.3679 0.632069 24 1.41176 24H22.5882C23.3679 24 24 23.3679 24 22.5882C24 21.8086 23.3679 21.1765 22.5882 21.1765Z" fill="#424242"/>
</svg>
