<svg width="14" height="15" fill="none" xmlns="http://www.w3.org/2000/svg"><mask id="prefix__a" fill="#fff"><path d="M12.765 9.559v.294a3 3 0 01-3 3h-5.53a3 3 0 01-3-3v-.294"/></mask><path d="M13.765 9.559a1 1 0 00-2 0h2zm-11.53 0a1 1 0 10-2 0h2zm7.53 2.294h-5.53v2h5.53v-2zm-7.53-2v-.294h-2v.293h2zm9.53-.294v.294h2v-.294h-2zm-7.53 2.294a2 2 0 01-2-2h-2a4 4 0 004 4v-2zm5.53 2a4 4 0 004-4h-2a2 2 0 01-2 2v2z" fill="#1332E2" mask="url(#prefix__a)"/><path d="M9.883 7.088L7.001 9.971M4.118 7.088l2.883 2.883M7.001 2.559V9.97" stroke="#1332E2" stroke-miterlimit="10" stroke-linecap="round" stroke-linejoin="round"/></svg>