<svg width="34" height="35" fill="none" xmlns="http://www.w3.org/2000/svg"><path d="M29.71 11.163a2.5 2.5 0 01.79 1.824V29.5A2.5 2.5 0 0128 32H6a2.5 2.5 0 01-2.5-2.5v-24A2.5 2.5 0 016 3h14.014a2.5 2.5 0 011.71.676l7.986 7.487z" stroke="#1332E2" stroke-miterlimit="10"/><path clip-rule="evenodd" d="M10.292 27.225c.601.523 1.488.27 2.097-.5.785-.99 5.04-8.088 5.203-13.393.057-1.753-.691-1.832-1.049-1.832-.455 0-1.162.563-.699 1.824.91 2.466 4.406 9.547 5.666 10.554 1.22.984 2.268.738 2.455.167.211-.65-.545-1.293-1.951-1.396-1.447-.11-6.365-.325-10.259 1.95-1.699 1-2.113 2.055-1.463 2.626z" stroke="#1332E2" stroke-miterlimit="10"/></svg>