<svg width="22" height="23" fill="none" xmlns="http://www.w3.org/2000/svg"><path d="M16.417 5.161c-3.043-.002-7.74-.004-10.852-.003a3.477 3.477 0 00-3.477 3.484v8.084a3.498 3.498 0 003.5 3.498H16.41a3.5 3.5 0 003.5-3.5V8.661a3.497 3.497 0 00-3.494-3.5z" stroke="#1332E2" stroke-miterlimit="10"/><path d="M2.588 9.174H19.41" stroke="#1332E2" stroke-miterlimit="10" stroke-linejoin="round"/><path d="M16.486 3.548v3.516M5.514 3.548v3.516" stroke="#1332E2" stroke-miterlimit="10" stroke-linecap="round" stroke-linejoin="round"/><path stroke="#1332E2" stroke-linecap="round" d="M4.383 11.46h2.235M4.383 13.401h2.235M4.383 15.342h2.235M4.383 17.283h2.235M9.559 11.46h2.882M9.559 13.401h2.882M9.559 15.342h2.882M9.559 17.283h2.882M15.383 11.46h2.235M15.383 13.401h2.235M15.383 15.342h2.235M15.383 17.283h2.235"/></svg>